<svg width="19" height="23" viewBox="0 0 19 23" fill="none" xmlns="http://www.w3.org/2000/svg">
<path fill-rule="evenodd" clip-rule="evenodd" d="M7.48936 14.727C6.87436 17.793 6.12336 20.732 3.89936 22.267C3.21236 17.634 4.90736 14.154 5.69436 10.46C4.35236 8.311 5.85536 3.988 8.68637 5.054C12.1694 6.364 5.67037 13.04 10.0334 13.874C14.5884 14.744 16.4484 6.359 13.6234 3.631C9.54236 -0.306997 1.74336 3.541 2.70136 9.179C2.93536 10.558 4.43236 10.976 3.30036 12.879C0.687363 12.327 -0.0916357 10.369 0.00836434 7.757C0.170364 3.482 4.04836 0.489002 7.93836 0.0750019C12.8584 -0.448998 17.4744 1.792 18.1124 6.192C18.8294 11.158 15.8924 16.537 10.6314 16.15C9.20537 16.045 8.60736 15.373 7.48936 14.728V14.727Z" fill="black"/>
</svg>
